<?xml version="1.0" encoding="UTF-8"?>
<svg id="Layer_1" data-name="Layer 1" xmlns="http://www.w3.org/2000/svg" viewBox="0 0 520.47 516.92">
  <defs>
    <style>
      .cls-1 {
        fill: #516381;
      }
    </style>
  </defs>
  <path class="cls-1" d="M468.81,99.63c27.5,0,49.88-22.38,49.88-49.88S496.31,0,468.81,0s-49.75,22.32-49.75,49.75,22.32,49.88,49.75,49.88Zm0-78.09c15.63,0,28.34,12.66,28.34,28.21s-12.71,28.34-28.34,28.34-28.21-12.71-28.21-28.34,12.66-28.22,28.21-28.21Z"/>
  <path class="cls-1" d="M509.71,495.38H134.28l45.35-31.84c10.32-7.26,17.79-17.96,21.03-30.12l21.86-82c.12-.47,.55-.8,1.04-.8h42.84l.98,1.5-17.82,40.58c-7.84,17.85-.41,38.83,16.91,47.77,9.07,4.68,19.39,5.43,29.02,2.1,9.65-3.32,17.31-10.26,21.57-19.54l36.01-78.35c14.98-32.58-8.27-69.88-44.12-70.79l-41.09-1.04v-37.36c.49,0,37.06,.44,37.55,.44,8.34,0,16.42-2.23,23.38-6.43l62.17-37.04c14.85-8.98,18.57-28.84,8.36-42.35-8.61-11.59-24.61-15.07-37.1-8.2l-52.93,28.39c-4.35,2.31-9.38,3.26-14.46,2.69l-27.32-3.15c-.04-.58-.11-1.14-.16-1.7l66.23-28.15c7.93-3.33,14.68-8.73,19.52-15.58l42.04-58.91c3.48-4.96,5.32-10.76,5.32-16.78,0-10.56-5.66-20.3-14.7-25.36-12.54-7.13-28.59-3.91-37.27,7.41l-37.05,47.27c-3.04,3.86-7.27,6.73-12.15,8.28l-41.28,12.72c2.77-6.97,4.32-14.46,4.32-22.16,0-33.27-27.07-60.34-60.34-60.34s-60.34,27.07-60.34,60.34c0,22.47,12.38,42.08,30.64,52.46-12.82,10.96-20.54,27-20.54,44.16v108.75l-20,112.96c-1.46,8.26-6,15.52-12.79,20.44l-48.39,35.09c-14.18,10.3-18.75,29.08-11.7,44.65H10.77c-5.95,0-10.77,4.82-10.77,10.77s4.82,10.77,10.77,10.77H509.7c5.95,0,10.77-4.82,10.77-10.77s-4.82-10.77-10.77-10.77h0ZM305.7,106.87c9.1-2.88,16.94-8.25,22.68-15.54l37.13-47.38c2.24-2.91,6.35-3.73,9.66-1.84,2.35,1.32,3.75,3.79,3.75,6.61,0,1.09-.24,2.75-1.36,4.33l-42.02,58.89c-2.54,3.59-6.1,6.43-10.34,8.21l-63.58,27.03c-.19-.37-.46-.7-.66-1.06-4.5-8.36-11.19-15.31-17.69-20l62.43-19.23ZM201.99,38.06c21.39,0,38.8,17.41,38.8,38.81s-16.27,38.63-38.8,38.8c-21.39,0-38.81-17.41-38.81-38.8s17.41-38.81,38.81-38.81ZM79.36,488.4c-4.25-6.7-2.55-15.59,3.86-20.24l48.38-35.09c11.33-8.22,18.92-20.34,21.36-34.12l20.14-113.73c.05-.29-.05-.55-.02-.84,.04-.36,.21-.67,.21-1.04v-109.85c0-16.09,10.29-32.81,32.64-36.3,.11,0,.21,0,.29-.02,18.15-1.4,34.99,9.39,39.52,30.15l-30.06-3.47c-5.86-.69-11.25,3.55-11.93,9.46-.68,5.91,3.55,11.25,9.46,11.94l79.24,9.14c9.49,1.03,18.82-.73,27.02-5.11l53.05-28.46c3.2-1.78,7.31-.85,9.58,2.19,2.73,3.62,1.44,8.78-2.21,10.97l-62.16,37.03c-3.76,2.27-8.12,3.5-12.75,3.36l-80.27-.95h-.12c-5.89,0-10.7,4.74-10.77,10.65-.07,5.95,4.7,10.83,10.64,10.9l21.89,.26v48.11c0,5.7,5.7,10.64,10.5,10.77l51.59,1.31c20.35,.52,33.62,21.69,25.09,40.26l-36.01,78.35c-3.68,8-13.29,11.34-21.15,7.28-7.24-3.73-10.35-12.5-7.07-19.96l17.82-40.58c3.08-7.02,2.43-15.04-1.77-21.45-4.19-6.41-11.26-10.25-18.93-10.25h-42.84c-10.23,0-19.21,6.91-21.85,16.79l-21.86,82.01c-1.94,7.29-6.41,13.7-12.6,18.05l-66.55,46.74c-7.03,4.92-16.75,3-21.36-4.25h0Z"/>
</svg>