<?xml version="1.0" encoding="UTF-8"?>
<svg id="Layer_1" data-name="Layer 1" xmlns="http://www.w3.org/2000/svg" viewBox="0 0 448 448.01">
  <defs>
    <style>
      .cls-1 {
        fill: #404040;
      }
    </style>
  </defs>
  <path class="cls-1" d="M442.4,0H5.6C2.51,0,0,2.5,0,5.6V350.68c0,3.09,2.51,5.6,5.6,5.6H262v86.12c0,1.91,.97,3.69,2.58,4.72,1.61,1.04,3.64,1.16,5.36,.37l41.09-18.96,41.09,18.96c.75,.34,1.55,.52,2.35,.52,1.05,0,2.1-.3,3.02-.88,1.61-1.04,2.58-2.81,2.58-4.72v-86.12s82.32,0,82.32,0c3.09,0,5.6-2.5,5.6-5.6V5.6c0-3.09-2.51-5.6-5.6-5.6h0Zm-136.96,418.77l-32.23,14.88v-110.88c9.73,5.3,20.65,8.68,32.23,9.71v86.29Zm43.44,14.88l-32.23-14.88v-86.1c11.51-.52,22.39-3.36,32.23-8.1v109.08Zm-35.98-111.99c-39.73,0-72.06-32.32-72.06-72.06s32.33-72.06,72.06-72.06,72.06,32.32,72.06,72.06-32.32,72.06-72.06,72.06h0Zm123.91,23.41h-76.73v-26.95c21.77-15.04,36.09-40.13,36.09-68.53,0-45.91-37.35-83.26-83.26-83.26s-83.27,37.35-83.27,83.26c0,26.82,12.8,50.65,32.55,65.89-.05,.31-.18,.59-.18,.91v28.68H11.2V11.2H436.8V345.08Z"/>
  <path class="cls-1" d="M357.09,230.06l-27.07-3.94-12.11-24.52c-.94-1.91-2.89-3.12-5.02-3.12s-4.08,1.21-5.02,3.12l-12.11,24.52-27.07,3.94c-2.11,.3-3.86,1.78-4.52,3.81-.66,2.02-.11,4.25,1.42,5.74l19.59,19.09-4.62,26.96c-.36,2.1,.5,4.22,2.23,5.47,1.73,1.26,4.02,1.42,5.9,.43l24.21-12.73,24.21,12.73c.82,.43,1.71,.64,2.61,.64,1.16,0,2.32-.36,3.29-1.07,1.72-1.25,2.59-3.38,2.23-5.47l-4.62-26.96,19.59-19.09c1.53-1.49,2.07-3.71,1.42-5.74-.66-2.03-2.41-3.51-4.52-3.81h0Zm-26.41,22.68c-1.32,1.29-1.92,3.14-1.61,4.95l3.2,18.68-16.77-8.82c-1.63-.86-3.58-.86-5.21,0l-16.77,8.82,3.2-18.68c.31-1.82-.29-3.67-1.61-4.95l-13.57-13.23,18.75-2.73c1.82-.26,3.4-1.41,4.21-3.06l8.39-16.99,8.39,16.99c.82,1.65,2.39,2.8,4.21,3.06l18.75,2.73-13.58,13.23Z"/>
  <path class="cls-1" d="M59.71,187.85h123.8c3.09,0,5.6-2.5,5.6-5.6V58.46c0-3.09-2.51-5.6-5.61-5.6H59.71c-3.09,0-5.6,2.5-5.6,5.6v123.8c0,3.09,2.51,5.6,5.6,5.6h0Zm5.6-123.81h112.6v112.6H65.31V64.05Z"/>
  <path class="cls-1" d="M183.51,217.09H60.85c-3.09,0-5.6,2.5-5.6,5.6s2.51,5.6,5.6,5.6h122.66c3.09,0,5.6-2.5,5.6-5.6s-2.51-5.6-5.6-5.6Z"/>
  <path class="cls-1" d="M183.51,255.8H60.85c-3.09,0-5.6,2.5-5.6,5.6s2.51,5.6,5.6,5.6h122.66c3.09,0,5.6-2.5,5.6-5.6s-2.51-5.6-5.6-5.6Z"/>
  <path class="cls-1" d="M183.51,294.52H60.85c-3.09,0-5.6,2.5-5.6,5.6s2.51,5.6,5.6,5.6h122.66c3.09,0,5.6-2.5,5.6-5.6s-2.51-5.6-5.6-5.6Z"/>
  <path class="cls-1" d="M232.07,64.05h155.32c3.09,0,5.6-2.5,5.6-5.6s-2.51-5.6-5.6-5.6H232.07c-3.09,0-5.6,2.51-5.6,5.61s2.51,5.6,5.6,5.6Z"/>
  <path class="cls-1" d="M232.07,102.77h155.32c3.09,0,5.6-2.5,5.6-5.6s-2.51-5.6-5.6-5.6H232.07c-3.09,0-5.6,2.51-5.6,5.61s2.51,5.6,5.6,5.6h0Z"/>
  <path class="cls-1" d="M232.07,141.48h155.32c3.09,0,5.6-2.5,5.6-5.6s-2.51-5.6-5.6-5.6H232.07c-3.09,0-5.6,2.51-5.6,5.61s2.51,5.6,5.6,5.6h0Z"/>
</svg>