<?xml version="1.0" encoding="UTF-8"?>
<svg id="Layer_1" data-name="Layer 1" xmlns="http://www.w3.org/2000/svg" viewBox="0 0 682.86 1073.19">
  <defs>
    <style>
      .cls-1 {
        fill: #516381;
      }
    </style>
  </defs>
  <path class="cls-1" d="M22.31,293.28c0,29.5,22.6,53.68,51.42,56.27-.38,2.64-.64,5.32-.64,8.07,0,31.22,25.31,56.53,56.53,56.53,19.01,0,35.71-9.47,45.96-23.87,27,18.34,59.58,29.07,94.68,29.07,41.46,0,79.37-15.01,108.75-39.82,8,7.23,18.54,11.7,30.18,11.7,23.95,0,43.34-18.73,44.8-42.31,2.46,.41,4.94,.76,7.52,.76,24.9,0,45.08-20.18,45.08-45.08,0-19.39-12.31-35.79-29.5-42.14,.07-.99,.3-1.93,.3-2.93,0-15.11-7.5-28.41-18.91-36.59,18-5.91,31.08-22.66,31.08-42.64,0-24.9-20.18-45.08-45.08-45.08-.09,0-.17,.02-.25,.03,.05-.85,.25-1.66,.25-2.52,0-24.9-20.18-45.08-45.08-45.08-.09,0-.16,.02-.25,.02-1.31-23.72-20.78-42.61-44.83-42.61-8.8,0-16.94,2.62-23.88,6.98-4.37-20.32-22.4-35.57-44.03-35.57-5.66,0-11.03,1.16-16.02,3.07C261.14,7.74,246.9,0,230.72,0c-18.29,0-34.16,9.8-43.04,24.35-2.47-.37-4.94-.76-7.52-.76-24.08,0-44.14,16.87-49.23,39.41-25.21,5.69-44.05,28.18-44.05,55.1,0,10.62,2.98,20.53,8.08,29.02-2.64-.38-5.33-.64-8.08-.64-31.22,0-56.53,25.31-56.53,56.53,0,16.77,7.34,31.79,18.94,42.14-16.16,9.96-26.98,27.76-26.98,48.14h0Zm122.46,39.25c1.15,.08,2.24,.34,3.41,.34,27.92,0,50.55-22.63,50.55-50.55,0-13.6-5.43-25.89-14.17-34.98,33.63-.28,60.82-27.61,60.82-61.31,0-7.02-1.24-13.74-3.41-20.02,5.26,1.86,10.83,3.06,16.73,3.06,13.9,0,26.48-5.62,35.62-14.71,7.67,13.92,22.31,23.46,39.32,23.46,.83,0,1.61-.2,2.43-.25-1.45,4.43-2.43,9.07-2.43,13.98,0,24.89,20.18,45.08,45.08,45.08,15.65,0,29.41-7.99,37.5-20.09,2.55,10.96,4.05,22.34,4.05,34.07,0,82.71-67.29,150-150,150-52.48,0-98.68-27.14-125.5-68.08h0Zm-22.06,.35l.2-.14c.21,.38,.46,.73,.67,1.11l-.88-.96Z"/>
  <path class="cls-1" d="M633.45,639.87l-58.19-60.83c.27-7.88-2.62-15.82-8.73-21.53l-71.03-66.52c-33.36-31.24-76.79-50.73-122.3-54.86-13.64-1.21-27.14,3.73-37.05,13.63l-48.88,48.88c-3.64,3.64-9.57,3.65-13.23,.03l-49.46-49.05c-9.89-9.81-23.39-14.72-37.14-13.5C81.39,445.71-.93,536.73,0,643.34l.96,104.4c.12,12.75,8.88,23.41,20.62,26.71l32.62,264.8c.58,4.7,4.57,8.23,9.31,8.23H446.52c8.14,0,15.87-3.52,21.22-9.66,5.34-6.14,7.77-14.29,6.65-22.3l-9.96-74.3c-6.52-.37-12.93-1.07-19.21-2.21l10.59,79.05c.38,2.73-.41,5.38-2.21,7.45-1.82,2.07-4.33,3.22-7.08,3.22H130.71c-2.77,0-5.3-1.16-7.11-3.26-1.81-2.1-2.58-4.77-2.16-7.57l11.38-79.17c4.52-30.09,4.5-60.61-.03-90.61l-11.73-83.16v-.04c-.07-.48-.31-.87-.44-1.32-.14-.48-.26-.97-.47-1.41-.1-.2-.16-.42-.27-.61-.02-.04-.02-.09-.05-.14-37.62-63.33-20.61-138.48-20.43-139.23,1.18-5.04-1.94-10.09-6.97-11.27-5.06-1.21-10.09,1.92-11.27,6.96-.61,2.54-11.13,48.79,1.73,101.46H19.47l-.7-76.18c-.75-84.62,56.22-158.43,134.85-181.6,.27,75.55,30.11,146.82,82.8,199.73-1.2,3.76-2.02,7.69-2.02,11.85v77.54c0,7.26,5.88,13.15,13.15,13.15,5.26,0,10.01-3.13,12.08-7.97l18.77-43.8c19.49-2.3,34.66-18.66,34.74-38.75,60.43-53.71,95.06-129.91,95.53-211.11,27.45,8.32,52.98,22.74,74.03,42.46l49.34,46.21-61.35,77.8c.87-.02,1.71-.13,2.58-.13,6.88,0,13.6,.6,20.25,1.46l52.25-66.27,7.96,7.45c3.56,3.33,3.95,8.92,.89,12.72l-40.47,50.24c6.48,1.76,12.85,3.8,18.97,6.34l34.28-42.55,52.52,54.9c28.5,29.8,44.21,68.93,44.21,110.16v143.86h-16.62c-2.61-7.81-9.9-13.47-18.59-13.47s-15.98,5.66-18.59,13.47h-16.62v-21.85c-5.68,6.84-12,13.12-18.75,18.91v33.4c0,1.67-.45,3.31-1.3,4.77l-22.7,38.44c-3.75,6.34-5.73,13.59-5.73,20.97,0,15.51,12.62,28.12,28.12,28.12h4.59v15.44c0,15.51,12.62,28.12,28.12,28.12h13.42c11.89,0,23.23-4.46,31.93-12.55l22.51-20.94c5.7-5.3,8.97-12.81,8.97-20.59v-256.1c0-46.09-17.55-89.82-49.41-123.13h0ZM71.82,1028.74l-31.18-253.12h63l10.61,75.23c4.26,28.23,4.28,56.87,.03,85.18l-11.38,79.17c-.7,4.63-.1,9.25,1.43,13.55h-32.5Zm16.73-290.63c2.19,6.25,4.66,12.51,7.64,18.75H29.1c-5.12,0-9.33-4.16-9.38-9.29l-.09-9.46H88.54Zm100.57-283.32c.83-.08,1.65-.11,2.48-.11,7.32,0,14.42,2.93,19.77,8.25l49.47,49.05c10.97,10.87,28.77,10.84,39.69-.09l48.88-48.88c5.96-5.96,14.04-8.94,22.1-8.22,2.87,.26,5.71,.75,8.56,1.14l-80.27,80.52c-10.83,10.86-28.05,11.12-39.21,.61l-85.25-80.35c4.56-.77,9.12-1.51,13.79-1.93h0Zm118.34,198.27c-6.88-11.5-19.32-19.28-33.69-19.28-10.6,0-20.19,4.24-27.27,11.06-42.89-44.57-68.76-102.46-73.34-164.43l74.57,70.29c9.11,8.59,20.65,12.86,32.16,12.86s23.98-4.64,33.19-13.88l76.53-76.77c-3.15,68.71-32.5,132.87-82.15,180.14h0Zm356.65,366.04c0,2.6-1.09,5.1-2.99,6.87l-22.51,20.94c-5.22,4.86-12.02,7.53-19.15,7.53h-13.42c-5.17,0-9.38-4.21-9.38-9.38v-55.77c0-5.18-4.2-9.38-9.38-9.38s-9.38,4.2-9.38,9.38v21.58h-4.59c-5.17,0-9.38-4.21-9.38-9.38,0-4.02,1.08-7.98,3.12-11.44l22.7-38.43c2.56-4.32,3.92-9.27,3.92-14.3v-11.7h20.15c3.61,4.34,8.98,7.15,15.07,7.15s11.46-2.82,15.07-7.15h20.15v93.49Z"/>
  <path class="cls-1" d="M335.44,785.11c0,20.88,4.78,40.59,13.08,58.32,14.33-16.94,30.61-31.84,48.45-44.42-17.27-37.84-37.03-58.34-50.18-68.64-7.28,16.79-11.36,35.28-11.36,54.74h0Z"/>
  <path class="cls-1" d="M355.69,713.48c15.07,11.1,37.62,33.4,57.15,75.13,12.48-7.5,25.59-13.89,39.16-19.19,6.42-2.51,12.95-4.75,19.57-6.74,1.74-.52,3.5-.98,5.25-1.47-1.35-3.05-2.7-6.1-4.14-9.01-4.94-9.97-10.37-19.02-15.98-27.35-19.63-29.15-41.61-48.37-54.09-57.88-19.16,11.49-35.26,27.47-46.9,46.53h0Z"/>
  <path class="cls-1" d="M394.81,898.35c14.78-16.69,30.8-30.7,48.04-41.94,6.52-4.25,13.21-8.14,20.08-11.6,30.06-15.18,63.38-22.84,99.75-22.84,4.09,0,8.18,.14,12.27,.34,6.28,.3,12.53,.83,18.75,1.57,3.8,.45,7.59,.94,11.36,1.56,3.89-12.75,6.02-26.28,6.02-40.31,0-1.93-.21-3.8-.29-5.71-5.68-1.59-11.4-2.95-17.18-4.11-8-1.61-16.06-2.88-24.21-3.66-7.73-.75-15.5-1.24-23.34-1.24-26.42,0-52.25,4.45-76.65,12.68-6.66,2.25-13.23,4.75-19.65,7.57-35.39,15.52-66.91,39.49-91.5,70.35,9.69,14.66,22.1,27.33,36.53,37.35h0Z"/>
  <path class="cls-1" d="M462.04,922.36c3.71,.3,7.43,.57,11.22,.57,40.32,0,76.48-17.42,101.68-45.02,7.18-7.87,13.53-16.5,18.75-25.87,1.57-2.82,2.96-5.73,4.33-8.66-1.44-.21-2.88-.41-4.33-.59-6.22-.8-12.47-1.42-18.75-1.74-4.08-.21-8.18-.33-12.27-.33-37.57,0-71.61,8.96-101.86,26.7-6.66,3.91-13.15,8.25-19.43,13-10.57,8-20.59,17.27-30.09,27.67,9.91,5.01,20.48,8.87,31.59,11.38,6.24,1.4,12.63,2.38,19.16,2.9h0Z"/>
  <path class="cls-1" d="M567.78,752.56c3.95,.33,7.86,.93,11.78,1.44,9.76,1.26,19.46,2.88,29,5.25-9.11-47.9-43-86.9-87.84-103.37-1.03-.38-2.05-.78-3.1-1.13,.68,.77,1.38,1.58,2.08,2.39,14.18,16.5,31.29,41.18,42.14,73.47,2.34,6.94,4.28,14.32,5.93,21.95h0Z"/>
  <path class="cls-1" d="M495.39,658.49c-.16-.16-.32-.32-.48-.48-6.43-6.43-10.82-9.93-10.98-10.04-.05-.04-.07-.1-.12-.14-1.57-.12-3.17-.18-4.76-.24-1.94-.08-3.85-.29-5.81-.29s-4.04,.22-6.06,.3c-16.26,.71-31.8,4.12-46.12,9.99,11.19,9.18,25.9,23.01,40.5,41.82,4.9,6.31,9.77,13.16,14.48,20.6,6.96,11,13.57,23.21,19.34,36.72,16.54-3.31,33.48-5.1,50.68-5.1,.79,0,1.56,.09,2.35,.09-1.05-4.28-2.23-8.44-3.53-12.48-9.32-28.98-24.35-51.69-37.2-67.19-4.51-5.45-8.68-9.94-12.29-13.57h0Z"/>
</svg>