<?xml version="1.0" encoding="UTF-8"?>
<svg id="Layer_1" data-name="Layer 1" xmlns="http://www.w3.org/2000/svg" viewBox="0 0 545.42 486.56">
  <defs>
    <style>
      .cls-1 {
        fill: #404040;
      }
    </style>
  </defs>
  <path class="cls-1" d="M106.26,196.94H15.18c-8.5,0-15.18,6.68-15.18,15.18v242.88c0,8.5,6.68,15.18,15.18,15.18H106.26c8.5,0,15.17-6.68,15.17-15.18V212.13c.01-8.51-6.66-15.18-15.17-15.18h0Z"/>
  <path class="cls-1" d="M545.42,225.71c0-24.73-16.98-49.77-49.42-49.77h-147.06c21.01-37.58,27.19-90.44,12.58-129.11C350.79,18.38,330.29,1.78,303.76,.1l-.43-.04c-17.27-1.06-32.21,11.88-33.64,29.11-3.78,38.36-20.59,106.21-44.68,130.3-20.28,20.28-37.64,28.78-66.42,42.85-4.16,2.04-8.71,4.26-13.53,6.66,.09,1.04,.14,2.08,.14,3.15v240.4c3.47,1.19,6.9,2.37,10.27,3.53,47.5,16.37,88.54,30.5,151.28,30.5h118.89c32.45,0,49.42-25.04,49.42-49.77,0-7.34-1.49-14.7-4.44-21.44,10.8-1.94,20.27-7.14,27.27-15.09,7.95-9.04,12.34-21.05,12.34-33.83,0-7.32-1.49-14.67-4.43-21.39,26.05-4.5,39.61-26.86,39.61-48.96,0-12.82-4.57-25.73-13.48-35.18,8.89-9.46,13.47-22.36,13.47-35.18h.02Z"/>
</svg>