<?xml version="1.0" encoding="UTF-8"?>
<svg id="Layer_1" data-name="Layer 1" xmlns="http://www.w3.org/2000/svg" viewBox="0 0 507.63 507.47">
  <defs>
    <style>
      .cls-1 {
        fill: #404040;
      }
    </style>
  </defs>
  <path class="cls-1" d="M271.38,157.46h-35c-6.96,0-13.64,2.77-18.56,7.69s-7.69,11.6-7.69,18.56v35c0,6.96,2.77,13.64,7.69,18.56s11.6,7.69,18.56,7.69h35c6.96,0,13.64-2.77,18.56-7.69s7.69-11.6,7.69-18.56v-35c0-6.96-2.77-13.64-7.69-18.56s-11.6-7.69-18.56-7.69Zm8.75,61.25c0,2.32-.92,4.55-2.56,6.19s-3.87,2.56-6.19,2.56h-35c-4.83,0-8.75-3.92-8.75-8.75v-35c0-4.83,3.92-8.75,8.75-8.75h35c2.32,0,4.55,.92,6.19,2.56s2.56,3.87,2.56,6.19v35Z"/>
  <path class="cls-1" d="M506.58,494.6l-21.35-39.64h13.65c3.41,0,6.52-1.99,7.95-5.09,1.43-3.1,.92-6.75-1.3-9.35l-103.69-122.5c-1.66-1.95-4.09-3.06-6.65-3.06h-101.24c1.25-2.81,2.19-5.74,2.8-8.75h13.82c3.47,.03,6.63-2,8.05-5.16,1.75-4.02,3.41-8.14,4.99-12.34h61.25c4.17,.1,7.83-2.75,8.75-6.82,0-.88,17.5-83.91-54.69-130.64C326.32,68.04,262.89,5.3,260.18,2.5c-3.4-3.34-8.85-3.34-12.25,0-2.98,2.89-66.41,65.62-78.75,148.75-72.8,46.72-55.3,129.76-55.3,130.64,.92,4.07,4.58,6.93,8.75,6.82h61.25c1.57,4.2,3.24,8.31,4.99,12.34,1.42,3.17,4.58,5.19,8.05,5.16h14.09c.61,3.01,1.55,5.94,2.8,8.75H112.56c-2.56,0-4.99,1.12-6.65,3.06L2.22,440.53c-2.22,2.59-2.73,6.25-1.3,9.35s4.54,5.09,7.95,5.09h13.65L1.17,494.6c-1.56,2.71-1.56,6.04,0,8.75,1.65,2.64,4.58,4.21,7.7,4.11H498.87c3.09,0,5.95-1.63,7.52-4.29,1.55-2.63,1.62-5.88,.18-8.57h.01ZM341.38,174.96c27.41,24.02,41.02,60.12,36.31,96.25h-48.48c8.44-31.38,12.54-63.76,12.16-96.25h0ZM253.88,21.4c19.14,21.31,35.3,45.12,48.04,70.79-29.8,17.1-66.45,17.1-96.25,0,12.79-25.67,29.01-49.49,48.21-70.79Zm-123.81,249.81c-4.73-36.13,8.89-72.24,36.31-96.25-.43,32.49,3.67,64.89,12.16,96.25h-48.48Zm72.89,17.5c-13.19-34.93-19.66-72.04-19.07-109.38,.34-24.45,5.39-48.6,14.88-71.14,34.29,19,75.96,19,110.25,0,9.48,22.54,14.53,46.69,14.88,71.14,.59,37.34-5.89,74.44-19.07,109.38h-101.85Zm75.6,17.5c-2.47,6.8-7.63,12.28-14.27,15.14-6.64,2.87-14.17,2.87-20.81,0-6.64-2.87-11.8-8.35-14.27-15.14h49.35Zm-161.96,26.25h111.04c7.52,5.8,16.75,8.95,26.25,8.95s18.73-3.15,26.25-8.95h111.04l88.81,105H27.79l88.81-105ZM23.5,489.96l18.9-35H465.38l18.9,35H23.5Z"/>
  <path class="cls-1" d="M218.88,349.96c-4.83,0-8.75,3.92-8.75,8.75v26.25c0,4.83,3.92,8.75,8.75,8.75s8.75-3.92,8.75-8.75v-26.25c0-2.32-.92-4.55-2.56-6.19s-3.87-2.56-6.19-2.56Z"/>
  <path class="cls-1" d="M288.88,349.96c-4.83,0-8.75,3.92-8.75,8.75v26.25c0,4.83,3.92,8.75,8.75,8.75s8.75-3.92,8.75-8.75v-26.25c0-2.32-.92-4.55-2.56-6.19s-3.87-2.56-6.19-2.56Z"/>
  <path class="cls-1" d="M253.88,367.46c-4.83,0-8.75,3.92-8.75,8.75v35c0,4.83,3.92,8.75,8.75,8.75s8.75-3.92,8.75-8.75v-35c0-2.32-.92-4.55-2.56-6.19s-3.87-2.56-6.19-2.56Z"/>
</svg>