<?xml version="1.0" encoding="UTF-8"?>
<svg id="Layer_1" data-name="Layer 1" xmlns="http://www.w3.org/2000/svg" viewBox="0 0 525.15 525.16">
  <defs>
    <style>
      .cls-1 {
        fill: #404040;
      }
    </style>
  </defs>
  <path class="cls-1" d="M361.47,163.69c-2.19-2.19-5.16-3.42-8.25-3.42s-6.06,1.23-8.25,3.42l-82.39,82.4-82.39-82.39h0c-4.56-4.56-11.94-4.56-16.5,0-4.55,4.56-4.55,11.94,0,16.5l82.4,82.39-82.39,82.39h0c-4.55,4.56-4.55,11.94,0,16.5,4.56,4.55,11.94,4.55,16.5,0l82.39-82.4,82.39,82.39h0c4.56,4.56,11.94,4.56,16.5,0,4.55-4.56,4.55-11.94,0-16.5l-82.4-82.39,82.39-82.39h0c2.19-2.19,3.42-5.16,3.42-8.25s-1.23-6.06-3.42-8.25h0Z"/>
  <path class="cls-1" d="M262.58,0C192.94,0,126.15,27.67,76.91,76.91S0,192.94,0,262.58s27.66,136.43,76.91,185.67c49.24,49.24,116.03,76.91,185.67,76.91s136.43-27.66,185.67-76.91,76.91-116.03,76.91-185.67c-.08-69.62-27.77-136.36-76.99-185.59C398.93,27.77,332.19,.08,262.57,0h0Zm0,501.84h0c-63.45,0-124.3-25.21-169.17-70.08S23.33,326.04,23.33,262.59s25.21-124.3,70.07-169.17S199.13,23.34,262.58,23.34s124.3,25.21,169.17,70.07c44.87,44.87,70.07,105.72,70.07,169.17-.07,63.43-25.3,124.24-70.15,169.09s-105.66,70.08-169.09,70.15h0Z"/>
</svg>