<?xml version="1.0" encoding="UTF-8"?>
<svg id="Ebene_1" data-name="Ebene 1" xmlns="http://www.w3.org/2000/svg" viewBox="0 0 44.1 44.1">
  <defs>
    <style>
      .cls-1 {
        fill: #404040;
      }
    </style>
  </defs>
  <path class="cls-1" d="M22.1,0C9.9,0,0,9.9,0,22.1s9.9,22.1,22.1,22.1,22.1-9.9,22.1-22.1S34.2,0,22.1,0Zm3,16.3h4.7c-.1,1.6,0,3.3,0,5h-4.7v15.4h-6.6v-15.4c-1.4-.1-2.8,0-4.3,0v-5h4.2c.1-1.3,0-2.5,.1-3.6,.1-1,.4-1.9,.9-2.7,1-1.4,2.6-2.6,4.7-2.7,1.8-.1,3.8,0,5.6,0v5c-.9,.1-1.9-.1-2.7,0-.8,.1-1.4,.6-1.7,1.2-.3,.8-.2,1.7-.2,2.8Z"/>
</svg>