<?xml version="1.0" encoding="UTF-8"?>
<svg id="Ebene_1" data-name="Ebene 1" xmlns="http://www.w3.org/2000/svg" viewBox="0 0 44.1 44.1">
  <defs>
    <style>
      .cls-1 {
        fill: #404040;
      }
    </style>
  </defs>
  <path class="cls-1" d="M22.1,0C9.9,0,0,9.9,0,22.1s9.9,22.1,22.1,22.1,22.1-9.9,22.1-22.1S34.2,0,22.1,0Zm12,17.3c.1,3.8-.9,6.8-2.4,9.2-1.4,2.3-3.3,4.2-5.5,5.6-2.3,1.4-5.3,2.4-8.8,2.3-3.3-.1-5.9-1-8.1-2.3-.1-.1-.3-.1-.4-.3,3.7,.4,6.5-.8,8.5-2.3-1.5,0-2.6-.6-3.4-1.2-.9-.7-1.5-1.6-1.9-2.8,.7,.2,1.8,.1,2.5-.1-1.4-.3-2.4-1-3.2-1.9s-1.4-2.1-1.4-3.7c0-.1,.2,0,.2,.1,.6,.3,1.4,.5,2.3,.6-1.4-1-2.8-2.9-2.4-5.6,.1-.8,.4-1.5,.7-2,.4,.4,.7,.8,1.1,1.2,2.6,2.6,5.9,4.5,10.7,4.8-.6-3,1-5.3,2.8-6.3,1-.6,2.5-.9,3.9-.6,1.3,.3,2.3,.9,3.1,1.7,1.4-.3,2.6-.8,3.6-1.4-.5,1.4-1.3,2.4-2.5,3.1,1.2-.1,2.3-.5,3.3-.9-.6,.9-1.6,1.9-2.7,2.8Z"/>
</svg>